<?xml version="1.0" encoding="utf-8"?>
<svg viewBox="267.728 117.447 51.246 18.301" width="51.246" height="18.301" xmlns="http://www.w3.org/2000/svg">
  <path d="M 285.054 121.807 C 284.778 121.807 284.554 121.583 284.554 121.307 C 284.554 121.03 284.778 120.807 285.054 120.807 L 302.054 120.807 C 302.33 120.807 302.554 121.03 302.554 121.307 C 302.554 121.583 302.33 121.807 302.054 121.807 L 285.054 121.807 Z M 285.054 126.807 C 284.778 126.807 284.554 126.583 284.554 126.307 C 284.554 126.03 284.778 125.807 285.054 125.807 L 302.054 125.807 C 302.33 125.807 302.554 126.03 302.554 126.307 C 302.554 126.583 302.33 126.807 302.054 126.807 L 285.054 126.807 Z M 285.054 131.807 C 284.778 131.807 284.554 131.583 284.554 131.307 C 284.554 131.03 284.778 130.807 285.054 130.807 L 302.054 130.807 C 302.33 130.807 302.554 131.03 302.554 131.307 C 302.554 131.583 302.33 131.807 302.054 131.807 L 285.054 131.807 Z"/>
  <rect x="298.058" y="124.071" width="16.733" height="4.88" style="fill: white; stroke: white;"/>
  <rect x="267.728" y="117.97" width="16.733" height="17.778" style="fill: white; stroke: white;"/>
  <rect x="302.241" y="117.447" width="16.733" height="17.778" style="fill: white; stroke: white;"/>
</svg>